<?xml version="1.0" standalone="no"?>
<!DOCTYPE svg PUBLIC "-//W3C//DTD SVG 20010904//EN"
 "http://www.w3.org/TR/2001/REC-SVG-20010904/DTD/svg10.dtd">
<svg version="1.0" xmlns="http://www.w3.org/2000/svg"
 width="755.000000pt" height="330.000000pt" viewBox="0 0 755.000000 330.000000"
 preserveAspectRatio="xMidYMid meet">

<g transform="translate(0.000000,330.000000) scale(0.100000,-0.100000)"
fill="#000000" stroke="none">
<path d="M5489 3203 c-9 -10 -40 -60 -69 -111 -84 -150 -186 -246 -309 -293
-28 -10 -120 -30 -205 -44 -85 -13 -179 -34 -210 -45 -157 -59 -233 -186 -301
-500 -15 -69 -36 -153 -47 -188 -17 -54 -18 -65 -6 -75 19 -16 48 -63 48 -79
0 -7 12 -35 25 -63 14 -27 25 -60 25 -72 0 -12 5 -34 10 -49 12 -30 -6 -232
-21 -248 -5 -6 -9 -18 -9 -27 0 -10 -4 -19 -10 -21 -13 -4 -42 -78 -31 -78 6
0 59 9 118 20 132 25 220 53 296 93 58 30 137 105 137 131 0 17 -37 33 -108
46 -107 20 -140 52 -70 69 209 51 358 114 466 195 110 84 180 207 197 349 5
42 4 57 -5 57 -7 0 -53 -19 -104 -42 -66 -30 -108 -43 -153 -46 -35 -2 -63 -2
-63 1 0 3 28 21 62 39 88 46 220 181 279 283 88 153 121 272 123 440 1 111
-16 231 -38 260 -11 15 -13 15 -27 -2z"/>
<path d="M2156 3185 c-66 -100 -55 -321 23 -515 73 -178 239 -384 360 -445 36
-18 50 -30 43 -37 -18 -18 -134 -10 -221 17 -47 14 -88 25 -93 25 -11 0 -10
-65 3 -119 50 -216 258 -365 587 -419 118 -20 130 -31 74 -68 -21 -14 -56 -25
-97 -29 -91 -10 -100 -19 -74 -72 26 -53 95 -105 183 -138 83 -31 313 -78 345
-70 22 6 22 7 7 24 -9 10 -16 25 -16 34 0 9 -4 17 -8 17 -19 0 -34 74 -39 187
-5 118 1 162 34 243 3 8 7 17 8 20 18 51 58 134 50 104 -3 -13 0 -21 8 -21 21
0 13 48 -43 267 -112 435 -160 488 -477 531 -255 34 -311 56 -423 168 -64 64
-86 96 -138 199 -35 67 -67 122 -71 122 -5 0 -16 -11 -25 -25z"/>
<path d="M3948 2533 c-55 -57 -85 -111 -94 -170 -9 -64 -25 -55 -45 26 -7 32
0 98 16 146 4 11 -5 3 -19 -18 -41 -58 -57 -114 -55 -192 2 -54 -1 -70 -12
-70 -23 0 -60 80 -68 147 l-7 63 -13 -60 c-15 -68 -10 -150 13 -192 8 -15 15
-22 16 -14 0 11 3 11 17 0 15 -12 16 -12 10 5 -6 16 -5 17 7 7 10 -8 16 -9 21
-1 3 5 11 10 16 10 6 0 7 -6 3 -12 -6 -10 -4 -10 7 -2 19 14 172 9 211 -7 25
-10 31 -10 39 2 7 11 9 9 9 -7 0 -17 5 -20 25 -16 17 3 27 -1 31 -12 3 -9 10
-16 16 -16 5 0 -21 35 -58 77 -36 42 -73 91 -80 109 -23 55 -17 122 15 187 16
31 29 57 27 57 -1 0 -23 -21 -48 -47z"/>
<path d="M3541 2289 c-1 -57 26 -137 47 -135 9 0 21 7 25 14 10 16 -11 45 -26
35 -6 -3 -7 -1 -3 6 4 6 3 18 -3 25 -6 7 -17 31 -25 52 l-15 39 0 -36z"/>
<path d="M3469 2142 c5 -10 18 -25 27 -33 11 -9 9 -2 -6 19 -26 35 -36 42 -21
14z"/>
<path d="M2480 1039 c-144 -13 -328 -55 -354 -80 -17 -16 19 -10 142 21 166
42 332 56 482 41 200 -20 413 -85 558 -168 58 -34 53 -22 -8 17 -112 72 -288
135 -450 161 -86 14 -265 18 -370 8z"/>
<path d="M4875 1044 c-88 -9 -234 -38 -305 -61 -86 -29 -223 -94 -260 -124
-14 -11 16 0 65 25 191 94 397 140 620 140 157 -1 211 -8 387 -51 93 -23 134
-26 116 -8 -10 10 -193 54 -268 64 -86 12 -296 20 -355 15z"/>
<path d="M3673 1023 c-7 -2 -13 -18 -13 -34 0 -16 -26 -79 -59 -142 -84 -162
-98 -244 -56 -344 27 -64 78 -33 95 57 12 61 17 70 31 50 17 -25 1 -95 -36
-163 -33 -61 -50 -136 -33 -152 10 -11 63 22 96 60 40 45 65 95 87 168 18 64
30 72 40 27 18 -80 -28 -185 -121 -277 -48 -48 -64 -70 -64 -91 0 -40 27 -126
48 -151 17 -21 17 -21 108 67 110 107 139 154 161 261 10 53 20 81 29 81 16 0
23 -25 26 -95 l3 -50 30 44 c25 37 30 56 33 116 5 84 -8 136 -69 282 -23 54
-56 139 -75 188 -18 50 -33 85 -34 78 0 -12 -29 -12 -152 2 -37 4 -65 12 -62
16 6 10 5 10 -13 2z"/>
<path d="M481 956 c-27 -28 -35 -45 -39 -85 -2 -27 -2 -62 2 -76 10 -40 71
-100 125 -124 100 -43 291 -50 423 -15 29 7 37 11 18 8 -232 -35 -364 -21
-481 52 -88 54 -105 163 -37 239 39 45 32 45 -11 1z"/>
<path d="M7133 952 c34 -39 37 -47 37 -104 0 -60 -1 -63 -44 -104 -81 -78
-228 -113 -395 -94 -103 11 -137 7 -44 -7 171 -24 351 2 429 62 94 72 96 215
4 274 -19 12 -16 5 13 -27z"/>
<path d="M177 963 c-14 -14 -6 -123 13 -186 38 -124 135 -214 285 -264 78 -27
86 -27 310 -27 176 0 256 4 340 18 112 19 258 59 285 80 18 13 24 36 10 36 -6
0 -10 7 -10 15 0 12 -7 11 -44 -4 -71 -31 -255 -88 -346 -107 -119 -26 -386
-26 -485 0 -151 40 -252 111 -306 217 -29 59 -54 177 -44 210 7 20 3 24 -8 12z"/>
<path d="M7438 900 c-18 -226 -167 -357 -448 -392 -186 -23 -406 7 -635 87
-135 47 -150 51 -125 35 13 -8 13 -10 -2 -10 -32 0 -16 -39 23 -54 122 -49
298 -76 539 -83 223 -6 318 6 428 57 78 37 164 117 196 184 32 67 50 172 38
217 -8 31 -9 27 -14 -41z"/>
<path d="M1470 895 c-76 -64 -186 -131 -278 -171 -42 -19 -71 -34 -63 -34 23
0 195 85 257 128 58 40 154 121 144 122 -3 0 -30 -20 -60 -45z"/>
<path d="M6130 907 c19 -21 67 -60 108 -88 71 -49 227 -129 253 -129 7 0 -34
23 -90 50 -112 55 -167 90 -251 158 -51 43 -53 43 -20 9z"/>
<path d="M2440 874 c-85 -19 -213 -60 -264 -86 -123 -61 -285 -178 -308 -221
-6 -12 16 2 48 30 122 104 275 190 424 238 69 22 110 28 222 32 151 6 228 -4
312 -41 134 -60 186 -165 136 -275 -23 -50 -21 -60 4 -32 23 25 45 87 45 126
1 73 -72 161 -164 200 -105 44 -323 58 -455 29z"/>
<path d="M4830 875 c-165 -37 -260 -122 -260 -232 0 -58 29 -127 58 -138 12
-4 12 -1 -1 19 -9 13 -21 44 -27 69 -30 118 67 221 247 263 95 22 319 14 422
-16 134 -38 317 -140 461 -256 37 -30 35 -27 -13 20 -113 109 -285 205 -457
252 -119 33 -327 42 -430 19z"/>
<path d="M6548 673 c7 -3 16 -2 19 1 4 3 -2 6 -13 5 -11 0 -14 -3 -6 -6z"/>
</g>
</svg>
